# xmcd CD database file
#
# Track frame offsets:
#	183
#	26423
#	49520
#	77233
#	102835
#	133435
#	157588
#	181893
#
# Disc length: 2758 seconds
#
# Revision: 0
# Processed by: cddbd v1.5.2PL0 Copyright (c) Steve Scherf et al.
# Submitted via: CDex 1.70beta2
#
DISCID=590ac408
DTITLE=Orquesta Guayacan - 5 Anos: Aferrados Con Al Sabor
DYEAR=2001
DGENRE=Salsa
TTITLE0=Muchachita
TTITLE1=Como Una Hoguera
TTITLE2=Arroz Con Coco
TTITLE3=Tema A Mama
TTITLE4=Guaguanco Callejero
TTITLE5=Yolanda
TTITLE6=Guitarra Y Tambo
TTITLE7=Un Vestido Bonito
EXTD=YEAR: 2001
EXTT0=
EXTT1=
EXTT2=
EXTT3=
EXTT4=
EXTT5=
EXTT6=
EXTT7=
PLAYORDER=
